<?xml version="1.0" encoding="UTF-8"?>
<svg width="628.12" height="392.81" version="1.1" viewBox="0 0 628.125 392.8125" xmlns="http://www.w3.org/2000/svg">
 <path d="m475.76 391.94c-1.5577-0.37357-3.878-1.3353-5.1562-2.1371-1.2783-0.80185-4.0848-1.7184-6.2366-2.0369s-7.0616-1.84-10.91-3.3812c-3.8489-1.5412-12.367-4.0778-18.93-5.6369s-12.411-3.1338-12.996-3.4993c-0.58505-0.36548-1.9075-0.78568-2.9387-0.93377-4.1912-0.60188-23.503-7.2515-24.375-8.393-0.51563-0.67499-3.2578-1.4195-6.0938-1.6545s-6.8438-0.85637-8.9062-1.3809-7.125-1.8132-11.25-2.8636-10.875-2.9404-15-4.2-8.7723-2.5346-10.327-2.8334c-3.888-0.74716-11.879-4.6912-11.094-5.4759 0.35197-0.35197-0.77171-0.63995-2.4971-0.63995-3.0922 0-10.974-2.242-20.144-5.7297-5.6995-2.1678-22.893-5.5203-28.311-5.5203-5.9562 0-13.199 1.7825-19.918 4.9024-5.6027 2.6012-6.66 2.7778-14.531 2.427-5.3396-0.23793-9.6346-0.95304-11.577-1.9276-1.6985-0.85211-5.0735-1.8343-7.5-2.1826-2.4265-0.34829-6.5333-1.5885-9.1262-2.7561s-6.6007-2.7786-8.9062-3.58c-4.7553-1.653-10.597-4.5713-12.785-6.3869-0.8807-0.73092-3.9816-1.2326-7.6915-1.2444-9.9396-0.0315-42.424 1.5017-46.528 2.1961-2.0625 0.34898-11.977 0.48666-22.031 0.30597-36.02-0.64735-40.963-0.63978-54.375 0.0833-7.4766 0.40302-16.336 0.66901-19.688 0.59109-7.1573-0.16641-5.9196-0.243-15.938 0.98639-10.14 1.2444-21.898 1.3091-24.087 0.13245-0.9316-0.50063-2.4612-1.1499-3.3991-1.4428-1.1867-0.37063-1.5295-1.0863-1.1273-2.3536 0.31788-1.0015 0.052932-2.6617-0.58876-3.6892-1.0063-1.6113-0.85129-2.1329 1.1273-3.7933 1.2617-1.0588 3.8672-2.1954 5.79-2.5259 4.7401-0.81462 5.9473-1.9248 8.0448-7.3987 1.1917-3.1101 2.8647-5.4115 4.9714-6.839 1.7464-1.1833 3.742-3.4918 4.4347-5.1299 1.3002-3.075 5.1917-7.2499 6.7576-7.2499 0.48906 0 0.8892-1.2445 0.8892-2.7656s1.4755-5.2125 3.2788-8.2031c3.7768-6.2634 4.0071-7.9954 1.4087-10.594-2.2268-2.2268-2.3108-3.5711-0.38097-6.0938 1.4344-1.875 1.4344-1.875 2.8469 0 0.77686 1.0312 1.7 2.3212 2.0514 2.8666 1.122 1.7413 8.8421 4.7941 16.576 6.555 6.4697 1.473 12.845 1.7472 46.406 1.9964 21.398 0.15885 39.539 0.32276 40.312 0.36422 0.77344 0.0414 14.55-0.23036 30.614-0.60407l29.208-0.67948 4.1574 2.4364c2.2866 1.34 7.398 5.3799 11.359 8.9774 4.0649 3.6922 8.4275 6.8103 10.017 7.1593 3.3748 0.74123 8.3954 4.7568 8.3954 6.7147 0 2.6461 2.2221 0.65555 4.9538-4.4375 1.5042-2.8044 3.3252-5.765 4.0468-6.579 0.72159-0.81404 1.312-1.7027 1.312-1.9748s2.0443-4.0475 4.543-8.3897c2.4986-4.3422 5.2668-10.074 6.1515-12.738 0.88471-2.6636 2.5318-6.1142 3.6602-7.6679 6.0582-8.3421 7.6339-10.563 12.373-17.437 2.8439-4.125 5.9672-9.2301 6.9407-11.345s5.5596-9.4974 10.191-16.406c11.962-17.843 13.795-20.927 23.163-38.986 1.1198-2.1585 3.745-6.1881 5.8338-8.9547s4.9492-7.3286 6.3564-10.138c1.4072-2.8093 3.5053-6.3734 4.6622-7.9203 1.157-1.5469 3.0561-4.7109 4.2203-7.0312s4.4479-7.7474 7.2972-12.06c2.8493-4.3128 5.9884-9.9674 6.9757-12.566 0.98733-2.5984 3.9115-8.1401 6.4982-12.315 2.5867-4.1747 5.2005-8.4303 5.8085-9.4567 0.608-1.0265 2.3772-3.9796 3.9314-6.5625 1.5543-2.5829 3.4234-5.7509 4.1536-7.04 0.73019-1.2891 2.639-4.6641 4.2417-7.5 1.6028-2.8359 3.5088-6.6328 4.2356-8.4375 0.72684-1.8047 3.1362-6.1332 5.3542-9.619s4.0326-7.3576 4.0326-8.604c0-1.4306 1.0952-3.1233 2.9701-4.5906l2.97-2.3244-4.5916-9.5735c-4.9188-10.256-7.8906-13.563-16.296-18.138-7.4304-4.0441-16.776-4.718-27.277-1.9669-3.3308 0.87254-8.5872 1.9517-11.681 2.3981s-7.7344 1.307-10.312 1.9125c-6.4361 1.5115-56.483 1.4642-67.031-0.063441-4.3828-0.63474-12.533-1.4935-18.112-1.9084-8.3584-0.62165-10.511-1.1001-12.234-2.7193l-2.0915-1.9649-3.522 6.0208c-1.9371 3.3114-3.8393 6.1534-4.227 6.3155-1.1076 0.46301-6.3859 10.325-7.0568 13.185-0.33261 1.418-0.98689 2.5781-1.454 2.5781-0.94778 0-6.6151 10.038-6.6151 11.716 0 0.58906-1.4009 2.729-3.1131 4.7554s-4.0297 5.6047-5.15 7.9518-3.9605 6.521-6.3116 9.2754-5.0653 6.5575-6.0315 8.4515c-0.96622 1.894-2.4482 4.0174-3.2934 4.7188s-2.1977 2.5716-3.0058 4.156-3.4848 5.4606-5.9484 8.6137-5.3788 7.4963-6.4783 9.6516c-1.0996 2.1553-3.3647 5.4817-5.0336 7.3921-1.669 1.9104-4.6697 6.0046-6.6683 9.0984s-5.5244 8.0941-7.8351 11.112c-2.3107 3.0178-5.0925 7.0839-6.1818 9.0358-2.9018 5.1998-13.258 20.802-15.24 22.96-0.93841 1.0217-1.7552 2.2873-1.8151 2.8125-0.0599 0.52516-0.17318 1.4822-0.25172 2.1267-0.0786 0.64454-0.74688 1.1719-1.4852 1.1719-0.73831 0-2.2935 1.3711-3.4559 3.0469s-3.3005 4.4326-4.7513 6.1264c-1.4508 1.6937-2.6379 3.7424-2.6379 4.5526s-1.0564 2.3041-2.3476 3.3197-3.6897 3.8186-5.3301 6.2287-4.5743 5.9466-6.5198 7.859c-1.9455 1.9123-4.4573 5.2802-5.5817 7.4842-2.3661 4.638-6.305 9.793-11.627 15.217-2.0625 2.102-4.8047 5.5438-6.0938 7.6484s-5.429 6.5939-9.1998 9.9762-7.7786 7.3556-8.9062 8.8297c-3.8475 5.0296-10.978 11.684-11.906 11.11-1.5453-0.95505-1.0392-3.1473 0.9755-4.2255 1.0457-0.55964 1.691-1.3577 1.4341-1.7734-0.25695-0.41576 1.3133-2.1657 3.4894-3.8887s4.2886-3.6725 4.6944-4.3322c0.40584-0.65967 2.6489-2.5142 4.9845-4.1211 2.4176-1.6634 6.0352-5.6093 8.3994-9.1618 5.8705-8.821 9.1096-12.921 15.358-19.441 3.0051-3.1354 6.203-7.1432 7.1063-8.9062 1.537-2.9998 4.4054-6.7573 9.1486-11.984 1.1061-1.2189 2.4479-2.938 2.9818-3.8203 5.0841-8.4015 14.841-21.795 17.711-24.312 0.9574-0.83965 5.8878-7.8548 10.957-15.589 5.0687-7.7344 10.403-15.69 11.853-17.68 1.4505-1.9896 4.4393-6.4192 6.6418-9.8438 2.2025-3.4245 6.0665-8.3828 8.5866-11.018s5.4408-6.4755 6.4905-8.533c1.6437-3.2219 12.217-19.571 14.423-22.3 2.6934-3.3333 14.793-21.143 17.121-25.201 1.5469-2.6963 3.7064-6.1449 4.7989-7.6634s2.3143-3.8156 2.7151-5.1047c0.40078-1.2891 1.8272-3.9889 3.1699-5.9996 3.2655-4.8904 3.6215-5.486 4.2588-7.1254 0.3007-0.77344 1.387-2.6719 2.4139-4.2188 1.027-1.5469 2.8413-4.7109 4.0319-7.0312 3.9048-7.6099 8.362-14.006 10.158-14.576 0.99338-0.31529 3.088 0.23901 4.7962 1.2693 4.6664 2.8143 8.7487 3.7339 19.346 4.3581 5.3627 0.31589 10.148 0.82024 10.634 1.1208 1.6955 1.0479 45.111 1.3385 55.449 0.37118 5.7292-0.53612 17.748-2.4655 26.709-4.2874 21.045-4.279 27.205-3.9943 36.037 1.6654 11.051 7.0817 12.755 9.4249 19.498 26.814 0.83683 2.158 0.9797 2.0885 6.7457-3.2812 6.7866-6.3202 15.392-12.34 20.802-14.552 14.834-6.0657 13.436-5.7625 23.438-5.084 13.285 0.90129 14.4 1.1062 20.156 3.7061 7.7365 3.4942 19.568 7.7958 24.791 9.0134 2.5489 0.59421 6.3458 1.8506 8.4375 2.792 2.0917 0.94141 5.7016 1.9994 8.0219 2.3511 9.5347 1.4451 24.593 5.698 35.429 10.006 6.3376 2.5197 14.142 4.9622 17.344 5.4278 3.2014 0.46557 8.1411 1.9162 10.977 3.2236 3.0128 1.3889 9.2482 2.9946 15 3.8626 13.678 2.0643 13.86 2.1188 15.517 4.6464 1.2646 1.93 1.3078 2.8407 0.29949 6.3132-0.64806 2.2318-1.7682 4.9919-2.4891 6.1335-1.2397 1.963-1.0647 2.2318 3.2244 4.9518 4.1537 2.6342 5.115 2.8539 11.425 2.6118 6.6658-0.25577 6.9623-0.17311 9.1396 2.5482 1.2376 1.5469 2.2523 3.7532 2.2549 4.9029 7e-3 2.971-2.6862 9.5501-5.4251 13.255-3.0823 4.169-5.8202 11.523-5.8202 15.633 0 3.6104-2.1324 9.4799-4.0376 11.114-0.66289 0.56847-1.7507 2.7211-2.4174 4.7836-1.2456 3.8535-11.554 24.794-13.833 28.099-0.70113 1.0171-1.2748 2.81-1.2748 3.9844 0 1.1743-0.42188 2.1352-0.9375 2.1352-0.51563 0-0.9375 0.81885-0.9375 1.8197s-0.35039 2.0362-0.77865 2.3009c-0.42825 0.26468-1.9605 3.3482-3.405 6.8522-2.5892 6.2807-15.797 34.104-17.487 36.84-1.4598 2.3619-7.9748 16.064-10.524 22.133-1.3228 3.1498-6.8798 14.751-12.349 25.781-5.469 11.03-11.012 22.375-12.318 25.211-1.3056 2.8359-2.757 5.8888-3.2253 6.7842s-0.85136 2.214-0.85136 2.9302c0 1.7187-3.512 9.7615-10.291 23.567-3.0382 6.1875-6.2546 13.781-7.1475 16.875-0.89293 3.0938-2.6032 7.6054-3.8007 10.026-1.1975 2.4205-3.1119 7.272-4.2543 10.781s-3.239 8.2282-4.659 10.487c-1.4201 2.2584-2.8644 6.0552-3.2097 8.4375-0.34528 2.3822-1.0817 5.1751-1.6365 6.2064-0.55478 1.0312-1.0368 2.2969-1.0712 2.8125-0.27204 4.0778-5.9786 9.3248-12.586 11.572-3.5018 1.1911-3.954 1.203-8.0828 0.21285zm13.18-6.6579c1.3689-1.1361 1.8733-4.7814 0.80894-5.8457-0.30926-0.30925-1.5767-0.10009-2.8165 0.4648s-2.5201 0.76112-2.8452 0.43609c-0.7808-0.7808 1.464-6.1328 2.9366-7.0014 1.1519-0.67948 4.5862-6.7185 12.375-21.76 2.2653-4.3748 4.7332-8.2981 5.4844-8.7185 0.75115-0.42037 1.3657-1.5547 1.3657-2.5208s0.96846-2.949 2.1521-4.4065c1.1837-1.4575 3.5699-5.8141 5.3028-9.6813s3.9285-8.1511 4.8791-9.5197c0.95063-1.3687 1.7284-3.2787 1.7284-4.2445 0-0.96583 0.7281-2.7956 1.618-4.0661 0.88991-1.2705 1.6656-3.6818 1.7239-5.3584 0.0582-1.6766 0.76762-3.7896 1.5764-4.6954 0.80882-0.90589 3.0235-5.6357 4.9215-10.511 1.898-4.875 4.2574-9.889 5.2431-11.142 0.98568-1.2531 1.7922-2.7525 1.7922-3.3321s1.8086-4.6359 4.0191-9.0142 5.2191-10.914 6.6858-14.523c1.4667-3.6094 4.2449-9.9375 6.174-14.062 1.929-4.125 4.0278-8.9766 4.6639-10.781 2.9359-8.329 3.9342-10.601 6.0872-13.856 1.2693-1.9185 3.9636-7.2851 5.9874-11.926 2.0237-4.6406 4.7748-10.336 6.1135-12.656s2.4391-5.3873 2.4453-6.8155c7e-3 -1.4282 1.066-4.2675 2.355-6.3095s2.3438-4.3391 2.3438-5.1046c0-0.76555 0.80996-1.8254 1.7999-2.3552s2.3141-2.5486 2.9426-4.4861 1.9526-4.6774 2.9426-6.0885c3.6448-5.1957 9.4586-18.962 9.7314-23.043 0.16386-2.4512 1.0147-4.9597 2.0834-6.1421 2.2591-2.4996 6.4101-13.455 7.6842-20.28 0.52943-2.8359 1.7551-6.2367 2.7238-7.5572 3.0472-4.154 7.5921-13.856 7.5921-16.208 0-3.2368-1.5388-4.0549-8.646-4.597-7.2352-0.55186-7.3888 0.16381-1.205 5.6156 3.0647 2.702 3.3705 3.3708 2.7855 6.0938-0.36143 1.6823-1.8781 5.379-3.3704 8.2149-4.7734 9.0712-13.022 27.453-13.476 30.032-0.59 3.3489-2.6147 7.6488-7.0479 14.968-2.0301 3.3516-3.6993 6.6109-3.7094 7.243-0.0101 0.63207-0.86053 2.5305-1.8898 4.2188-1.0293 1.6882-1.8731 4.0465-1.875 5.2405-4e-3 2.5869-1.6556 5.9732-3.4216 7.0162-0.69816 0.41234-1.2694 1.1708-1.2694 1.6855 0 1.0604-11.485 28.57-14.041 33.632-2.1291 4.2166-4.1888 8.9799-5.6869 13.152-0.64802 1.8047-2.8449 6.859-4.8819 11.232s-4.3673 9.6463-5.1784 11.719-2.3508 4.8419-3.4215 6.1543c-2.1182 2.5962-4.1352 6.9105-9.6224 20.583-1.966 4.8984-6.2112 14.086-9.4338 20.416-3.2227 6.3304-5.8594 12.058-5.8594 12.727 0 0.66958-1.0304 2.1854-2.2897 3.3685s-3.44 5.3699-4.8458 9.304-2.8551 7.5748-3.2205 8.0905c-0.36544 0.51562-0.98659 1.9922-1.3803 3.2812-0.39374 1.2891-2.599 6.3516-4.9006 11.25s-5.224 11.115-6.4942 13.814c-1.2702 2.6992-2.0743 5.2882-1.7869 5.7532s-0.0781 1.3438-0.81205 1.953c-0.73401 0.60917-2.2351 2.8352-3.3357 4.9468s-3.2164 4.9745-4.7018 6.3621c-1.4854 1.3875-3.4005 4.2718-4.2558 6.4094-1.3878 3.4685-1.8912 3.8866-4.6792 3.8866-1.7183 0-3.4018-0.44935-3.7413-0.99857-0.40939-0.66241-1.1616-0.50585-2.2344 0.46507-1.4706 1.3309-2.1636 1.281-7.6413-0.55064-3.3132-1.1079-8.0603-2.881-10.549-3.9403-2.4888-1.0593-5.6784-1.8381-7.0882-1.7307-1.6021 0.12207-4.9621-1.2516-8.9614-3.6637-5.687-3.43-6.8792-3.8047-10.724-3.3706-4.276 0.48267-13.73-1.2899-19.326-3.6234-1.5469-0.64506-5.1328-1.8578-7.9688-2.695-2.8359-0.83715-8.1094-2.3992-11.719-3.4711-3.6094-1.072-9.7266-3.1551-13.594-4.6291-3.8672-1.4741-10.018-3.2863-13.667-4.0271-3.6499-0.74086-8.0796-2.227-9.8438-3.3024-2.0499-1.2497-4.8023-1.9567-7.626-1.9589-2.4301-2e-3 -6.559-0.84726-9.1753-1.8785s-5.6198-1.875-6.6744-1.875c-1.7492 0-12.965-4.3692-17.056-6.6441-0.93459-0.51975-2.4882-0.69459-3.4525-0.38854-0.96428 0.30605-4.2074-0.24091-7.207-1.2155s-7.3206-1.8376-9.6022-1.9178c-2.2816-0.0803-5.0465-0.73434-6.1442-1.4536-1.0977-0.71923-5.3651-2.3721-9.4831-3.6729-7.0843-2.2379-7.786-2.2958-13.036-1.0755-3.0515 0.70935-5.7415 1.0964-5.9778 0.86012-0.23627-0.23629 0.16806-0.44243 0.89852-0.45812 0.98738-0.0212 0.92406-0.26424-0.24681-0.94732-1.0503-0.61276-2.3305-0.57458-3.8431 0.11463-1.9402 0.88403-2.6473 0.68212-4.8901-1.3964-1.442-1.3364-3.4289-2.4299-4.4153-2.4299-0.98639 0-1.5677-0.3653-1.2917-0.81177 0.27593-0.44648 1.6133-0.59927 2.972-0.33955 2.2415 0.4285 2.4064 0.26489 1.7805-1.7664-0.37937-1.2312-1.2164-3.2643-1.8601-4.518-1.161-2.2613-1.1858-2.2445-3.1117 2.1094-1.0678 2.4138-2.336 4.3888-2.8184 4.3888-0.48236 0-3.5741-2.6445-6.8706-5.8768-3.2965-3.2322-8.5357-7.1778-11.643-8.7681s-7.5338-4.3299-9.8373-6.0882c-5.3815-4.1078-17.221-7.4927-26.19-7.4876-7.0908 4e-3 -23.166 1.1974-26.726 1.984-2.0666 0.45667-7.34 0.88419-11.719 0.95006-4.3787 0.0658-9.4378 0.24823-11.243 0.40527s-10.031 0.54631-18.281 0.86504-17.953 0.97958-21.562 1.4686-19.43 1.1416-35.156 1.4502c-31.208 0.6124-30.938 0.55893-30.938 6.1262 0 3.1676 3.5577 5.0419 7.0499 3.7142 1.5188-0.57744 3.961-0.57482 6.8006 7e-3 3.9172 0.80305 15.968 2.0603 18.493 1.9294 4.1142-0.21324 51.595-1.0959 55.084-1.024 2.4523 0.0505 5.3313-0.37509 6.3977-0.94581 1.0664-0.57073 8.5521-1.4149 16.635-1.876 8.0828-0.46108 18.071-1.2521 22.196-1.7578 10.006-1.2267 24.426-1.5403 29.062-0.6321 4.5116 0.88371 13.515 4.2557 15.469 5.7934 2.4918 1.9613 9.5398 5.223 10.092 4.6705 1.1148-1.1148-2.024-5.141-4.827-6.1915-1.6068-0.60222-5.9335-2.5285-9.6148-4.2806-3.6813-1.7523-7.7429-3.1858-9.0258-3.1858s-2.907-0.69215-3.6091-1.5381c-1.1017-1.3275-2.7827-1.4624-12.275-0.98511-6.0492 0.30416-11.827 0.9963-12.839 1.5381-1.0124 0.54181-4.6347 0.98511-8.0497 0.98511-3.4149 0-7.9778 0.41458-10.14 0.9213-8.5959 2.0147-80.284 4.2392-97.681 3.0311-6.8838-0.47808-11.482-0.44043-11.848 0.097-0.822 1.2067-2.8652-0.18353-2.0969-1.4267 0.41882-0.67768 4.2585-0.78107 11.968-0.3223 10.267 0.61092 20.21 0.61299 42.289 8e-3 10.782-0.29505 39.808-2.1703 49.688-3.2101 21.319-2.2438 29.857-2.9746 40.352-3.4534 11.012-0.50249 11.438-0.44753 17.344 2.2376 9.8488 4.4778 11.211 4.9604 11.211 3.9717 0-2.4633 3.6269-0.30656 9.0929 5.407 4.4605 4.6625 6.5998 6.2524 8.141 6.0504 2.8078-0.36794 7.1411 3.1693 7.1411 5.8292 0 1.1717 0.76007 2.8183 1.689 3.659 1.7213 1.5578 14.638 3.8988 16.197 2.9355 0.47094-0.29105 1.3476 0.54929 1.9482 1.8674 1.2419 2.7257 3.1914 3.0602 5.5252 0.94807 2.3088-2.0894 6.8272-2.2367 7.2424-0.236 0.23892 1.1511-1.2477 2.3938-5.3272 4.4531-5.1154 2.5822-6.4936 2.8536-14.357 2.8266-6.1588-0.0211-9.23-0.4317-10.518-1.4062-1.0009-0.75704-3.1993-1.3764-4.8854-1.3764-1.9005 0-3.758-0.7433-4.8877-1.9558-1.531-1.6433-2.1488-1.781-3.8668-0.86154-2.5788 1.3801-3.274 0.7269-1.9196-1.8038 0.84562-1.58 0.768-2.0789-0.3928-2.5244-0.79566-0.30533-1.4467-1.3538-1.4467-2.3298 0-1.8265 1.3738-2.4067 2.2689-0.95828 0.27752 0.44902 1.779 1.0713 3.3366 1.3828 2.1766 0.43531 2.832 1.0709 2.832 2.7461 0 2.6181 1.6223 4.4297 3.9669 4.4297 1.8728 0 3.5375-2.9673 1.9597-3.4932-0.53526-0.17842-1.7713-0.93673-2.7468-1.6851-1.7177-1.3178-1.7004-1.4179 0.54605-3.1757l2.3196-1.815-1.8509-2.1811c-3.3926-3.998-5.2502-4.7102-4.4663-1.7124 0.55627 2.1272 0.0141 2.3049-2.6624 0.87245-1.2584-0.6735-2.2454-0.69375-3.007-0.0617-0.80024 0.66415-3.158-0.28182-8.0161-3.2162-3.7853-2.286-7.1568-4.1567-7.4922-4.1567-0.33534 0-2.2117-0.85861-4.1697-1.908-1.958-1.0494-6.3814-2.2595-9.8299-2.6891-8.5577-1.0661-31.245 0.30809-43.77 2.6511-5.6719 1.0611-17.906 2.4143-27.188 3.0073-18.125 1.158-18.246 1.1608-30.938 0.71898-4.6406-0.16155-13.5 0.0252-19.688 0.41496-7.6466 0.4817-13.352 0.34452-17.812-0.42826-3.6094-0.62533-9.3047-1.1938-12.656-1.2632-3.3516-0.0695-7.0632-0.45698-8.2481-0.86121-1.3344-0.45525-2.6679-0.30878-3.5037 0.38487-0.74213 0.61591-1.9342 0.89538-2.6491 0.62105-1.9114-0.73347-3.9932 4.1514-3.5193 8.2578 0.05951 0.51562 2.8818 1.0537 6.2718 1.1957 6.5733 0.27535 7.6317-1.1019 1.7018-2.2144-2.3673-0.4441-3.0294-0.91149-2.3103-1.6307 0.71919-0.71918 1.9552-0.66565 4.3125 0.18675 1.8174 0.65719 4.4877 0.93498 5.934 0.61733 1.4463-0.31767 19.682-0.49038 40.523-0.38382 53.579 0.27397 56.742 0.19714 59.721-1.4508 6.9472-3.8424 9.3481-4.5595 15.047-4.4945 3.2653 0.0372 7.6657-0.54222 9.7787-1.2877 2.5264-0.89138 4.1586-1.0388 4.7668-0.43056 1.0282 1.0282 1.0236 1.0303-7.1312 3.2945-3.7357 1.0372-5.925 1.2174-7.1068 0.58496-1.1785-0.63071-2.9924-0.48928-5.8511 0.45623-4.0916 1.3532-4.0323 1.3643 4.763 0.89152 4.8984-0.26334 10.383-0.703 12.188-0.97702s10.514-0.93406 19.355-1.4667c15.423-0.92929 16.219-0.8904 19.674 0.96095 1.98 1.0612 4.1335 1.9294 4.7857 1.9294 0.65217 0 1.1858 0.80361 1.1858 1.7858 0 1.9572-1.7335 1.958-13.594 7e-3 -9.304-1.5311-16.898-1.2184-40.312 1.66-5.411 0.6652-12.465 0.90392-49.219 1.6656-14.695 0.30454-29.25 0.76744-32.344 1.0287-5.5751 0.47075-8.1243 0.57708-41.719 1.7401-15.826 0.54788-23.679 1.4175-25.034 2.7725-1.3026 1.3026 0.72339 3.4232 2.7778 2.9076 1.188-0.29818 3.2205 8e-3 4.5166 0.68043 2.4523 1.2723 9.4717 0.97824 24.302-1.018 7.5653-1.0183 52.407-3.3381 58.594-3.0311 23.356 1.1589 77.571-0.10774 91.406-2.1355 4.3828-0.64236 10.289-1.1011 13.125-1.0195 13.603 0.39168 12.967 0.24454 14.583 3.3707 0.82864 1.6024 1.2714 3.8508 0.98383 4.9964-0.69531 2.7703 3.8728 6.1868 9.1431 6.838 2.1358 0.26391 6.2958 1.2724 9.2444 2.241 3.9127 1.2854 8.1077 1.7611 15.528 1.7611 9.9152 0 10.229-0.0651 12.686-2.6294 1.3855-1.4462 2.5192-3.1088 2.5192-3.6947 0-1.6724 1.5587-2.2554 8.2751-3.0956 4.8877-0.61137 6.7103-0.48704 8.3323 0.5684 2.7021 1.7583 9.0315 3.8236 14.297 4.6651 2.3019 0.3679 6.5491 1.8701 9.4382 3.3382s7.5008 3.1514 10.248 3.7406 6.7267 1.8576 8.843 2.8187c2.1163 0.96109 5.1134 1.7608 6.6603 1.7772 1.5469 0.0163 4.9219 1.0071 7.5 2.2017s10.383 3.5283 17.344 5.186c15.687 3.7357 17.709 4.2473 30.332 7.6739 5.5967 1.5192 11.162 2.7623 12.367 2.7623s2.4515 0.42187 2.7702 0.9375c0.31868 0.51562 1.2105 0.9375 1.9818 0.9375s3.2587 0.84568 5.5276 1.8793c5.7634 2.6255 31.397 8.9797 31.397 7.7829 0-0.19422 0.94922 0.16318 2.1094 0.7942 1.1602 0.63102 2.7422 1.2394 3.5156 1.3519s4.7812 1.4437 8.9062 2.958c4.125 1.5144 10.147 3.3305 13.382 4.0358 3.8268 0.83425 6.6115 2.0664 7.9688 3.5259 1.864 2.0044 2.6645 2.1922 7.512 1.7622 2.9841-0.26469 6.0427-0.99336 6.7969-1.6193zm-222.46-64.367c0.90235-0.2358 2.3789-0.2358 3.2812 0 0.90235 0.23581 0.16407 0.42875-1.6406 0.42875s-2.543-0.19294-1.6406-0.42875zm214.72 47.287c1.3005-2.707 2.6492-6.293 2.997-7.9688 0.43868-2.1134 1.1645-3.0469 2.3691-3.0469 2.1901 0 4.6788-3.5811 7.4926-10.781 1.209-3.0938 2.7576-6.4572 3.4412-7.4742 0.68367-1.0171 1.243-3.1868 1.243-4.8216 0-1.8207 0.56339-3.1885 1.4541-3.5303 0.79974-0.30689 2.2919-2.5669 3.316-5.0222 1.024-2.4553 2.447-5.7298 3.1621-7.2767 5.7314-12.398 6.3929-14.491 5.0819-16.08-1.1055-1.3392-1.0974-1.6356 0.0552-2.023 3.9588-1.3307 12.996-16.673 20.262-34.397 5.62-13.709 10.807-25.112 12.154-26.719 1.4708-1.7542 6.5206-11.854 7.4961-14.992 0.39928-1.2846 1.8834-4.8705 3.298-7.9688s2.8847-6.6879 3.2669-7.977 2.5861-6.1406 4.8976-10.781c2.3115-4.6406 5.6023-12.234 7.3128-16.875 1.7105-4.6406 4.2092-10.68 5.5527-13.422 1.3434-2.7413 3.1081-6.9442 3.9214-9.3397s3.7047-8.801 6.4254-14.235c6.2323-12.447 10.352-21.393 11.24-24.41 0.37943-1.2891 3.5955-8.3138 7.1469-15.611 6.4858-13.326 7.6408-16.919 5.1283-15.955-0.73076 0.28042-1.5613-0.09632-1.8456-0.8372-0.89619-2.3355-2.2651-1.4719-3.4377 2.1686-0.62281 1.9336-1.4471 3.9375-1.8318 4.4531-0.38465 0.51562-1.3397 3.0469-2.1223 5.625-3.6884 12.151-8.0101 22.528-14.055 33.75-3.3109 6.1461-6.2785 12.662-6.8569 15.055-0.80721 3.3399-2.635 7.4989-10.276 23.382-3.2247 6.7031-7.4378 16.406-9.3626 21.562-1.9247 5.1562-4.438 10.43-5.5851 11.719s-2.3356 3.0572-2.6412 3.9291c-0.30556 0.87196-2.6345 4.4579-5.1755 7.9688-3.5112 4.8514-5.2102 8.4487-7.0795 14.989-1.9514 6.8278-3.7897 10.613-8.8982 18.322-3.5413 5.3442-7.2337 10.505-8.2055 11.468-2.0919 2.0737-5.0069 6.6999-8.296 13.166-2.4241 4.7657-4.6966 8.6381-8.5275 14.531-1.1732 1.8047-3.2661 6.0234-4.6509 9.375s-3.2712 7.7812-4.192 9.8438c-0.92074 2.0625-3.0297 7.7578-4.6866 12.656s-3.5376 10.172-4.1793 11.719c-1.8676 4.5019-5.3855 14.792-5.9295 17.344-0.27478 1.2891-1.8811 3.9664-3.5695 5.9497-1.7594 2.0666-3.3339 5.1682-3.6882 7.2656-0.99867 5.9111-2.683 4.4794-1.9606-1.6665 0.4354-3.7045 1.8306-7.4805 4.5822-12.401 2.1759-3.8914 4.1041-7.5063 4.2848-8.0331 0.18071-0.52684 1.3705-3.6352 2.644-6.9076 1.2735-3.2723 2.0547-6.2105 1.7359-6.5293-0.31878-0.31878-2.2797 1.4094-4.3576 3.8403-2.0779 2.431-4.378 4.4199-5.1113 4.4199-1.7992 0-1.6803-0.82592 0.67521-4.6875 1.1008-1.8047 3.4328-7.44 5.1821-12.523 1.7494-5.0829 4.1934-10.57 5.4313-12.192 1.2378-1.6229 3.5742-5.9008 5.192-9.5064 1.6177-3.6056 3.5146-7.1894 4.2152-7.9638s2.6991-4.7831 4.4411-8.9081 4.5144-9.3563 6.161-11.625 2.9938-4.6246 2.9938-5.2352 1.6564-3.4748 3.6809-6.3649 4.5567-7.2346 5.6272-9.6544 4.0659-7.5102 6.6566-11.312 5.1106-7.9646 5.5996-9.251c0.73988-1.946 2.8107-3.3564 2.8107-1.9142 0 1.308-2.816 6.4853-6.7389 12.39-2.4558 3.6963-5.1835 8.5478-6.0615 10.781-1.7698 4.5022-3.7242 7.8604-6.1036 10.487-0.86633 0.9565-2.1074 3.0659-2.7579 4.6875s-2.7927 5.351-4.7604 8.2876c-1.9678 2.9366-3.5778 5.7248-3.5778 6.1961 0 1.4555-6.5143 15.043-7.5059 15.656-0.51453 0.318-2.1584 3.0428-3.653 6.0552s-3.7791 7.3112-5.0767 9.5528c-2.308 3.9872-7.5836 18.538-6.9507 19.171 0.17591 0.17591 1.5756-0.57229 3.1104-1.6627 2.2248-1.5805 3.5218-4.0938 6.3966-12.395 1.9833-5.7268 4.8178-12.573 6.2989-15.214 1.4811-2.6409 2.6928-5.2981 2.6928-5.9049 0-0.60683 1.5912-3.5086 3.5361-6.4484s5.3856-8.931 7.6461-13.314c3.9671-7.6917 7.6678-13.209 13.724-20.463 4.1736-4.9984 8.2799-12.81 10.681-20.318 2.5881-8.0944 4.8794-12.644 9.5306-18.923 5.2836-7.1328 9.5725-15.388 14.035-27.015 2.177-5.6719 4.8403-11.789 5.9184-13.594 5.4769-9.1682 12.94-27.188 11.261-27.188-0.68779 0-12.582 18.704-12.582 19.786 0 1.1682-7.1492 17.41-10.479 23.808-2.8218 5.421-11.923 18.836-15.829 23.33-1.8433 2.1214-4.9786 6.3883-6.9673 9.482-1.9888 3.0938-4.367 6.476-5.285 7.5162-2.5954 2.9408-8.3695 13.485-17.19 31.39-4.445 9.0234-8.6778 17.461-9.4062 18.75s-3.4688 6.3516-6.0898 11.25c-2.6209 4.8984-5.9096 11.016-7.3081 13.594-2.614 4.8186-4.3509 8.7101-7.5335 16.878-1.0052 2.5798-2.6753 6.1658-3.7112 7.9688s-2.1806 4.3328-2.5436 5.6219-1.8829 3.901-3.3775 5.8044-2.7175 4.0421-2.7175 4.7528c0 0.71068-1.0039 2.165-2.2308 3.2318-1.227 1.0668-2.4398 2.514-2.6953 3.2159-0.33683 0.92549-0.76349 0.99658-1.5524 0.25863-0.81747-0.76463-0.4998-2.0466 1.2778-5.1562 1.3012-2.2762 2.3708-4.8769 2.377-5.7792 7e-3 -0.90234 0.56477-1.6406 1.2412-1.6406 1.6597 0 4.5801-4.1 7.5587-10.612 1.3537-2.9596 2.4614-5.5912 2.4614-5.848s2.1426-5.1569 4.7614-10.889c2.6187-5.7322 4.5617-11.186 4.3178-12.119-0.2739-1.0474 0.32846-2.2022 1.5746-3.0187 1.11-0.72729 3.8646-4.8599 6.1214-9.1836s4.6242-8.494 5.2609-9.2675c0.63672-0.77344 2.7468-4.9922 4.6891-9.375 7.1604-16.158 20.506-40.393 25.297-45.938 1.1138-1.2891 3.3876-4.5262 5.0528-7.1936 1.6653-2.6674 3.6255-5.3459 4.3561-5.9523 5.2341-4.3439 23.162-36.024 25.628-45.287 0.52549-1.974 1.9645-4.9271 3.1979-6.5625 5.708-7.5688 11.267-18.268 14.251-27.429 0.68626-2.1068 2.4825-6.3256 3.9917-9.375s3.3022-7.021 3.9844-8.8256 3.2853-7.6084 5.7846-12.897c2.4993-5.2888 4.5442-9.8134 4.5442-10.055s1.286-3.2464 2.8577-6.6781c3.2062-7.0004 3.2454-9.1385 0.17539-9.5764-2.6682-0.38062-3.8649 2.2977-1.7256 3.862 1.3843 1.0122 0.80938 2.6199-5.5991 15.658-3.928 7.9915-8.0738 15.796-9.2131 17.343-2.3864 3.2404-6.5487 11.167-7.5538 14.385-0.37745 1.2086-1.9246 4.0322-3.4381 6.2748s-3.5482 6.4916-4.5217 9.4423c-0.97345 2.9507-2.4141 5.7254-3.2014 6.166-1.3436 0.75195-3.8675 5.6051-9.1351 17.566-1.2315 2.7963-3.6061 6.8041-5.2768 8.9062-1.6708 2.1021-3.0419 4.1238-3.0469 4.4926-5e-3 0.36881-1.2747 2.6662-2.8216 5.1054s-2.8125 4.942-2.8125 5.5618c0 2.6179-12.193 20.925-16.328 24.515-1.3322 1.1567-2.4221 2.6734-2.4221 3.3703 0 0.69693-0.89216 2.0708-1.9826 3.0531-1.0904 0.98227-2.3645 2.6297-2.8313 3.6609s-2.0004 3.6632-3.408 5.8487c-4.4718 6.9432-10.528 17.045-10.528 17.56 0 0.27358 0.61858 0.49742 1.3746 0.49742 1.1314 0 1.0655 0.53904-0.37248 3.0469-0.96092 1.6758-2.0369 4.0184-2.391 5.2058-0.35414 1.1874-2.1488 4.7733-3.9882 7.9688s-4.183 7.4974-5.2082 9.5599-3.0707 5.2172-4.5456 7.0105-2.6817 3.648-2.6817 4.1217c0 0.47369-1.4766 3.0858-3.2812 5.8046-1.8047 2.7189-3.2812 5.6758-3.2812 6.571 0 0.89519-0.97902 2.9331-2.1756 4.5286-2.4231 3.231-6.2619 10.894-6.2619 12.5 0 0.57108-0.99453 2.2309-2.2101 3.6884-2.2793 2.7331-9.0399 16.13-9.0399 17.914 0 0.55262 0.68172 1.1412 1.5149 1.3079 1.1964 0.23938 0.70363 1.3819-2.3438 5.4341-2.3617 3.1404-3.8587 6.141-3.8587 7.7344 0 1.4318-0.1063 2.6034-0.23623 2.6034s-4.4542-0.81973-9.6094-1.8216c-13.945-2.7101-22.435-5.1718-25.593-7.4209-1.5506-1.1041-4.2307-2.0109-5.9558-2.015-11.463-0.0274-32.164-4.1232-41.105-8.1332-5.7998-2.6011-18.588-6.7089-19.146-6.1504-1.0785 1.0785-0.48387 1.9522 2.5454 3.7395 3.689 2.1766 7.1525 3.085 12.908 3.3859 2.5274 0.1321 5.4028 1.0242 7.0312 2.1816 1.5153 1.0769 5.9192 2.8842 9.7864 4.0162s8.7437 2.6243 10.837 3.3162c2.093 0.69192 7.7251 1.6956 12.516 2.2305s9.1954 1.3551 9.7883 1.8228c0.5929 0.46768 3.3983 1.5921 6.2342 2.4987 2.8359 0.90657 7.3136 2.6179 9.9504 3.8029 4.2277 1.9 13.453 4.1718 16.941 4.1718 0.67874 0 1.2341-0.6201 1.2341-1.378 0-1.923 5.0826 1.6095 9.7518 6.7778 1.9752 2.1864 4.1048 3.9752 4.7323 3.9752 0.62753 0 2.7933 1.459 4.8128 3.2422s4.1496 3.2598 4.7337 3.2812c0.58402 0.0215 2.1259-2.1758 3.4264-4.8828zm8.168-30.378c0-0.5718 2.7332-6.593 8.0205-17.669 1.2307-2.5781 3.3651-7.6406 4.743-11.25 4.1463-10.861 18.821-41.428 20.338-42.366 2.0772-1.2838 1.0163 1.4955-5.8248 15.26-4.0784 8.2056-8.5435 17.872-9.9224 21.482-1.3789 3.6094-3.5592 9.3047-4.8452 12.656s-3.2882 7.7812-4.4493 9.8438-2.8517 5.7539-3.7569 8.2031c-0.90523 2.4492-2.2438 4.4531-2.9746 4.4531s-1.3287-0.27555-1.3287-0.61234zm-20.692 32.722c-0.0368-0.38671-2.7872-2.6948-6.112-5.1292-5.0091-3.6676-6.5235-4.3304-8.837-3.8677-1.6565 0.3313-3.3688 0.0797-4.2102-0.61868-0.78005-0.64739-3.3384-1.5358-5.6853-1.9742-4.5362-0.84745-20.236-6.4941-25.714-9.2482-1.8052-0.90766-6.7831-1.9471-11.066-2.3107-4.2815-0.36347-9.2757-1.2839-11.098-2.0454-1.8225-0.7615-5.7023-1.8166-8.6217-2.3446s-7.8392-2.241-10.933-3.8066c-5.0485-2.5549-6.437-2.8327-13.548-2.7109-4.3574 0.0746-8.1262 0.33927-8.375 0.58809-1.0699 1.0699 1.8382 2.4119 7.0424 3.25 3.0794 0.49592 9.0163 2.3826 13.193 4.1926 4.1768 1.81 8.3745 3.2964 9.3281 3.3031 0.95368 7e-3 4.4083 0.85041 7.6769 1.875 3.4728 1.0886 8.5754 1.8629 12.277 1.8629 5.1475 0 6.6521 0.35189 8.0341 1.879 2.0217 2.2339 5.8798 3.3507 15.742 4.5564 5.7915 0.70807 7.7872 1.3728 9.6177 3.2033 1.2704 1.2704 4.31 2.8106 6.7546 3.4226 9.8836 2.4745 15.883 4.0963 19.445 5.2566 4.5642 1.4868 5.175 1.5668 5.0893 0.66646zm-58.996-16.172c0-0.51563-0.73828-0.93104-1.6406-0.92315-1.4021 0.0123-1.4362 0.1465-0.23437 0.92315 1.7693 1.1434 1.875 1.1434 1.875 0zm40.677-8.2694c0.91837-1.486-3.0972-6.7306-5.1534-6.7306-1.6348 0-1.798-0.24774-0.8865-1.346 0.61439-0.74029 2.3344-1.6134 3.8223-1.9402 1.6594-0.36448 2.9408-1.3844 3.3145-2.6384 0.33509-1.1243 2.6081-4.9974 5.0512-8.6067 2.443-3.6094 5.3276-8.4609 6.4101-10.781 9.3583-20.059 11.68-24.278 15.69-28.507 7.1887-7.5814 9.7945-12.971 12.733-26.337 0.86876-3.9512 2.1053-6.524 4.1556-8.646 1.6053-1.6616 4.0408-5.3125 5.4122-8.1132s3.5894-6.3947 4.9289-7.9866 3.6334-5.3238 5.0976-8.293 5.332-8.6354 8.5953-12.591c9.3172-11.295 14.121-18.902 20.324-32.182 1.6858-3.6094 4.0387-7.6172 5.2286-8.9062 2.5474-2.7598 6.6165-9.7957 7.5904-13.125 0.3771-1.2891 2.4248-5.2835 4.5505-8.8765s5.415-9.4993 7.3097-13.125c8.1715-15.637 10.085-19.133 13.875-25.342 2.2029-3.6094 4.5514-7.1953 5.2187-7.9688s3.1582-5.1304 5.5352-9.6821 4.9826-9.2843 5.7902-10.517c2.7549-4.2045 0.78955-4.8156-2.8773-0.8948-3.8169 4.0813-12.706 17.04-12.706 18.523 0 0.50563-1.582 3.4944-3.5156 6.6416s-4.1536 7.2102-4.9334 9.0289c-0.77979 1.8186-3.3637 6.2598-5.742 9.8691-2.3783 3.6094-5.1153 8.0403-6.0822 9.8465-1.5956 2.9808-12.059 16.637-13.671 17.843-0.36883 0.27588-1.3635 2.1743-2.2104 4.2188-3.3831 8.1667-6.122 13.351-7.9067 14.966-1.0319 0.93384-1.8761 2.2696-1.8761 2.9684 0 0.69881-1.4766 3.3713-3.2812 5.9388s-3.2812 4.8706-3.2812 5.1179c0 1.0293-9.4847 16.402-13.035 21.127-2.1122 2.8111-3.8404 5.8027-3.8404 6.648 0 0.84533-1.3124 3.177-2.9163 5.1815-1.604 2.0045-4.3252 5.7539-6.0472 8.332s-4.4295 6.513-6.0166 8.7442-3.612 5.4734-4.4997 7.2048c-0.88767 1.7314-4.2507 6.9839-7.4733 11.672-3.2226 4.6882-5.8594 8.8516-5.8594 9.252 0 0.9313-12.401 20.053-18.917 29.169-2.744 3.8388-5.9401 8.9013-7.1026 11.25-3.584 7.2412-9.1989 15.998-11.088 17.293-0.98912 0.67787-4.3296 1.5148-7.4234 1.8598s-6.6797 1.3898-7.9688 2.3217c-3.8146 2.7577-6.7316 3.1201-8.881 1.1034-1.3977-1.3114-3.8835-1.9336-9.4002-2.3528l-7.5-0.56995 3.2812 1.7951c1.8047 0.9873 5.3906 2.0974 7.9688 2.4669 2.5781 0.36951 5.9531 1.222 7.5 1.8944 6.81 2.9603 10.88 4.1584 16.156 4.7552 7.0693 0.7998 8.5681 1.5891 6.8799 3.6233-0.81661 0.98395-2.0343 1.2806-3.6897 0.89887-5.3572-1.2354-12.026-3.3954-15.596-5.0513-2.0625-0.9568-6.6726-2.2451-10.245-2.863-3.5721-0.61783-8.7521-2.1217-11.511-3.3418-2.759-1.2202-5.9851-2.2185-7.169-2.2185s-6.2826-1.4569-11.33-3.2376c-6.6685-2.3524-11.965-3.4978-19.373-4.1895-5.6074-0.52356-11.445-1.5979-12.971-2.3874-1.5268-0.78952-3.8793-1.4355-5.2279-1.4355s-3.3391-0.47481-4.4234-1.0551c-1.0843-0.58031-6.2974-2.2253-11.585-3.6555-5.2872-1.4302-12.282-3.8973-15.545-5.4824-3.2626-1.5851-7.6194-3.2696-9.6819-3.7433-9.9406-2.2833-15.241-4.0658-17.812-5.99-2.3471-1.7566-3.899-2.0817-9.3783-1.9651-6.3821 0.13585-15.515 2.3726-18.195 4.4564-1.3516 1.0507-5.7078 10.135-5.7078 11.903 0 0.53736 2.437-1.584 5.4156-4.7142 3.5064-3.6848 6.1621-5.6912 7.533-5.6912 1.1646 0 3.1568-0.68107 4.4273-1.5135 2.126-1.393 2.5638-1.393 5.4993 0 1.7542 0.83242 3.9613 1.5135 4.9046 1.5135s3.8327 0.81549 6.4208 1.8122 8.2916 3.1295 12.674 4.7395 9.2344 3.6003 10.781 4.4229c1.5469 0.82256 4.0711 2.1448 5.6094 2.9383 1.5383 0.79349 5.7571 2.0146 9.375 2.7136s8.4765 1.6485 10.797 2.11c2.3203 0.46152 5.9974 0.86427 8.1713 0.89501 2.1739 0.0308 5.338 0.64954 7.0312 1.3751 1.6933 0.72559 5.8209 2.0362 9.1724 2.9124 6.4876 1.6962 22.072 6.7188 29.062 9.3664 2.4215 0.91715 10.01 2.0832 17.812 2.7372 12.982 1.0881 16.372 1.9317 19.822 4.9338 0.84739 0.73735 5.9099 2.104 11.25 3.0369 11.823 2.0656 12.754 2.1475 13.355 1.1746zm5.7066-7.2848c2.3701-4.9946 1.2799-5.662-2.1919-1.3417-1.8674 2.3238-2.8822 4.4495-2.5443 5.33 0.75751 1.974 2.672 0.36191 4.7362-3.9882zm-190.99-5.6179c-0.89339-0.8934-2.6845 0.55368-2.0187 1.631 0.39573 0.64031 0.92011 0.62414 1.5934-0.0491 0.55196-0.55196 0.74335-1.2638 0.4253-1.5818zm80.86 1.5208c0-1.0111-8.6106-3.7863-11.748-3.7863-1.1178 0-4.8147-1.4766-8.2155-3.2812-6.1855-3.2825-8.4865-3.8174-11.48-2.6686-2.1203 0.81362 7.7703 5.4702 13.631 6.4174 2.3203 0.37504 4.6406 0.99944 5.1562 1.3875 3.0422 2.2897 12.656 3.7567 12.656 1.9312zm13.125-1.8872c0-2.3606-12.247-5.9534-13.482-3.9551-0.32581 0.52716 0.99231 1.7832 2.9291 2.7912 3.7371 1.9449 10.553 2.6966 10.553 1.1639zm-19.219-5.6491c-1.966-2.1724-0.81119-2.4278 2.712-0.60002 2.6743 1.3875 7.4101 0.96605 6.8838-0.61257-0.54863-1.6459-7.5335-3.6028-10.755-3.0129-1.6686 0.30555-3.8145 0.13769-4.7688-0.37302s-6.1273-1.8236-11.496-2.9177c-5.3684-1.094-10.394-2.5504-11.169-3.2365-1.921-1.7018-22.701-9.4076-29.064-10.778-2.8359-0.61077-6.5321-1.81-8.2137-2.665-2.4955-1.2688-3.3978-1.3419-4.9092-0.3981-1.0184 0.63602-2.4058 1.1564-3.083 1.1564-1.975 0-9.1066 4.9857-9.1066 6.3664 0 1.3452 1.5341 1.0703 7.3801-1.3224 4.0537-1.6592 6.5799-1.6328 10.757 0.1123 1.8511 0.77344 4.9847 1.4062 6.9636 1.4062 2.3657 0 4.686 0.80272 6.7748 2.3438 1.7472 1.2891 3.9522 2.3438 4.8999 2.3438s5.19 1.3372 9.4272 2.9715c4.2373 1.6343 10.448 3.2231 13.801 3.5307 4.0342 0.37004 7.3273 1.3196 9.7334 2.8066 4.3928 2.7149 9.6152 4.6567 12.674 4.7125 2.1956 0.04 2.2102-7e-3 0.55782-1.8338zm-128.91-1.6875c0-2.5401-1.8964-3.9375-5.3438-3.9375-4.0216 0-4.0451 1.9988-0.0469 3.9887 4.0281 2.0047 5.3906 1.9918 5.3906-0.0512zm252.16-2.4761c-0.0164-0.54598-0.64922-0.17377-1.4062 0.82712-0.75704 1.0009-1.363 2.2665-1.3466 2.8125 0.0164 0.54598 0.64922 0.17377 1.4062-0.82712 0.75704-1.0009 1.363-2.2665 1.3466-2.8125zm-40.112 0.88231c2.2264-1.8734 3.8121-2.3438 7.9013-2.3438 4.4994 0 5.4628-0.35484 7.9945-2.9447 1.5832-1.6196 4.499-6.2956 6.4795-10.391s4.7842-8.9728 6.2304-10.839c4.8103-6.206 28.776-43.184 32.347-49.91 1.2384-2.3325 4.9726-8.1135 8.2982-12.847 7.4365-10.584 17.134-25.695 21.515-33.524 1.8047-3.2251 4.5469-7.8375 6.0938-10.25 8.196-12.781 10.62-16.932 15.646-26.795 3.0221-5.9297 7.0981-12.68 9.0577-15 4.9346-5.8428 16.976-24.765 23.108-36.312 7.0712-13.316 13.66-24.006 18.391-29.842 7.8858-9.7265 11.927-16.144 13.516-21.461 1.7761-5.945 0.8781-6.9513-6.6286-7.4283-9.415-0.59815-14.739-1.6978-20.122-4.1561-2.8359-1.2951-8.7136-2.9311-13.061-3.6356-4.3479-0.70448-8.3557-1.643-8.9062-2.0857-1.9922-1.6017-13.354-5.5075-20.689-7.1119-4.125-0.90235-9.9125-2.4312-12.861-3.3975-2.9486-0.96627-6.6148-1.7569-8.1473-1.7569s-5.8061-1.0893-9.497-2.4207c-3.691-1.3314-8.6731-2.9768-11.071-3.6564-4.4596-1.2637-16.191-5.7816-23.37-9.0003-2.2052-0.98865-5.8692-1.7975-8.1421-1.7975s-5.2466-0.42354-6.6082-0.94119c-4.2844-1.6289-12.146-1.4835-15.807 0.2924-1.8562 0.90041-4.9631 2.3116-6.9042 3.136-5.5895 2.3738-7.1598 3.2967-14.67 8.6225-3.8905 2.7588-7.3235 5.7119-7.6289 6.5625-0.30543 0.85061-2.3902 3.0231-4.6328 4.8278-2.3858 1.9199-4.7011 4.8597-5.5807 7.0859-0.82678 2.0926-2.132 4.6238-2.9005 5.625-3.1404 4.0911-5.8292 8.6405-6.3768 10.789-0.31972 1.2545-2.1016 4.6013-3.9598 7.4372s-4.6054 7.5513-6.1049 10.479c-1.4995 2.9273-3.1522 5.5855-3.6726 5.9071-0.52041 0.32164-2.4577 3.7274-4.3051 7.5683s-3.6803 6.9835-4.0731 6.9835c-1.2429 0-6.4093 8.7724-7.1195 12.089-0.74727 3.4894-5.0533 11.243-8.5556 15.405-1.2264 1.4576-2.2299 3.0315-2.2299 3.4976 0 0.46612-2.0591 3.9142-4.5758 7.6624-4.3183 6.4315-7.7831 12.267-12.395 20.877-1.1048 2.0625-2.7957 4.5-3.7574 5.4166-0.96173 0.91661-2.0193 2.745-2.3501 4.0632-0.33083 1.3181-1.5722 3.3673-2.7587 4.5538s-2.6246 3.8932-3.196 6.015-1.4214 3.8578-1.889 3.8578c-0.46762 0-1.4006 1.0426-2.0732 2.3168s-2.4843 4.7547-4.0258 7.7344-4.3892 7.4594-6.3281 9.9549c-1.939 2.4955-3.5264 5.0268-3.5276 5.625-9.4e-4 0.59823-1.231 2.5255-2.7329 4.2828s-3.835 5.4502-5.1846 8.2065c-2.5412 5.1898-4.7755 8.7084-9.1896 14.472-1.418 1.8514-2.5781 3.7706-2.5781 4.2649 0 1.1052-4.9266 8.0244-9.0499 12.71-3.6812 4.1834-6.5828 9.6912-8.4915 16.118-0.7783 2.6208-3.5468 7.9333-6.1522 11.805-5.1102 7.5947-9.6456 16.67-8.769 17.546 0.89281 0.89281 3.4001-1.7007 3.4001-3.517 0-1.831 8.1132-9.4645 12.656-11.908 1.9115-1.0281 5.2331-1.5187 10.369-1.5313 7.7187-0.019 12.515 1.2386 15.881 4.1644 1.0312 0.89624 3.5625 2.5021 5.625 3.5686 11.164 5.7729 15.567 7.4036 22.906 8.484 5.5057 0.81049 9.9176 2.1772 14.531 4.5013 3.6438 1.8356 10 4.2967 14.125 5.4691 8.5461 2.4291 13.771 4.1588 24.221 8.0184 4.0401 1.4922 8.0998 2.7131 9.0214 2.7131 0.92164 0 3.5253 0.81815 5.7858 1.8181 2.497 1.1045 6.6269 1.8996 10.523 2.0257 3.5269 0.11418 8.5865 0.74196 11.243 1.3951 2.657 0.65311 6.5184 1.5867 8.5808 2.0746 2.0625 0.4879 3.9 0.94041 4.0834 1.0056 0.18339 0.0652 1.5868-0.93622 3.1188-2.2253zm-113.61 0.62901c0-1.2285-8.3484-4.7217-14.725-6.1614-3.2005-0.72256-7.0625-2.1992-8.5822-3.2813-1.5882-1.1309-4.2124-1.9676-6.1714-1.9676-1.8745 0-5.0789-0.85232-7.1209-1.894-3.5635-1.818-3.9028-1.8319-8.4453-0.34608-3.3974 1.1112-4.6503 1.9753-4.4409 3.0626 0.23181 1.2037 1.54 1.5228 6.3732 1.5547 3.3449 0.022 7.5581 0.61068 9.3628 1.3081 7.423 2.8687 10.192 3.6753 17.344 5.0524 4.125 0.79424 8.9766 1.8522 10.781 2.351 4.3071 1.1904 5.625 1.2658 5.625 0.3216zm154.69-3.9103c0-0.51563-0.18604-0.9375-0.41342-0.9375s-0.67416 0.42187-0.99283 0.9375c-0.31867 0.51562-0.13264 0.9375 0.41342 0.9375s0.99283-0.42188 0.99283-0.9375zm-96.792-3.0335c-0.21239-0.63718-2.2058-1.4691-4.4297-1.8488-2.2239-0.37965-6.645-1.9077-9.8246-3.3956s-7.7994-3.008-10.266-3.3779c-4.9557-0.74316-12.383-3.6603-14.733-5.7862-0.833-0.75373-6.1384-2.1638-11.79-3.1334-10.288-1.7651-16.305-3.692-19.005-6.086-4.2032-3.7268-20.826-10.839-25.333-10.839-3.7673 0-15.141 6.8872-18.414 11.15-1.7393 2.2656-3.1624 4.4312-3.1624 4.8125s-0.84375 0.91399-1.875 1.1837c-1.4289 0.37366-1.875 1.2788-1.875 3.804 0 6.5388 3.6283 5.2221 6.0978-2.2129 1.6289-4.9042 5.941-8.4252 10.318-8.4252 1.2353 0 3.2151-0.37436 4.3995-0.83193 1.1844-0.45755 4.3652-1.3395 7.0685-1.9599l4.915-1.128 4.8084 3.5297c5.2366 3.844 13.4 6.9526 18.259 6.9526 3.2349 0 7.9763 1.4748 8.8027 2.738 1.3671 2.0898 17.207 7.5745 21.876 7.5745 1.1426 0 3.6518 0.84375 5.5759 1.875s4.0775 1.875 4.7853 1.875 4.4007 1.0359 8.2065 2.302c7.5495 2.5116 16.252 3.1963 15.596 1.227zm102.24-6.835c-0.28865-0.28864-0.81286 0.23167-1.1649 1.1562-0.50876 1.3361-0.40108 1.4438 0.52481 0.52481 0.64071-0.63594 0.92876-1.3924 0.64011-1.6811zm-275.19-2.9339c-0.63472-0.2568-1.9004-0.27243-2.8125-0.0348-0.91216 0.2377-0.39285 0.44781 1.154 0.46692 1.5469 0.0191 2.2932-0.17537 1.6585-0.43218zm43.994-3.5644c-0.42598-3.8508-4.6092-9.5548-7.9861-10.889-5.3522-2.115-13.696-7.6265-14.266-9.4237-0.30683-0.96677-0.92568-1.7578-1.3752-1.7578-0.44951 0-2.723-1.6494-5.0521-3.6652l-4.2348-3.6652-13.4 0.3021c-7.3702 0.16615-20.783 0.62527-29.807 1.0203-9.0234 0.395-17.461 0.68181-18.75 0.63736-1.2891-0.0444-7.8281-0.0637-14.531-0.0427-6.7031 0.021-15.141-0.068-18.75-0.19766-9.2933-0.334-26.881-0.30181-35.156 0.0643-7.9941 0.35373-17.287-1.2754-23.352-4.094l-4.1332-1.9207-2.059 2.3937c-1.1324 1.3165-3.0037 2.8993-4.1582 3.5172-1.4292 0.76487-1.9464 1.708-1.6204 2.9546 0.27542 1.0532-0.22546 2.5126-1.1791 3.4354-1.8913 1.8301-2.9274 5.1556-2.0492 6.5767 0.71842 1.1624 50.105-0.18311 58.707-1.5995 3.0938-0.50939 13.39-1.1805 22.88-1.4913 9.4902-0.31085 17.928-0.91433 18.75-1.3411 0.82233-0.42675 6.7686-1.0219 13.214-1.3226s16.57-0.99329 22.5-1.5391c17.968-1.654 31.66 1.4456 41.166 9.3186 1.8511 1.5332 6.1889 4.2335 9.6396 6.0006s7.8501 4.7436 9.7763 6.6143c3.9621 3.848 5.6442 3.8848 5.2271 0.11461zm237.86-5.5407c2.3604-3.8192 2.7671-7.4412 0.58916-5.2465-1.8454 1.8596-4.5042 8.404-3.4142 8.404 0.48048 0 1.7518-1.4209 2.8251-3.1575zm25.389-44.398c0-0.70828 0.64365-2.5324 1.4303-4.0537 0.78668-1.5213 1.1031-2.7659 0.70313-2.7659-0.97048 4e-5 -5.8834 6.2021-5.8834 7.4272 0 0.53071-0.80937 2.2958-1.7986 3.9225s-1.5668 3.5617-1.2834 4.3001c0.57602 1.5011 6.832-6.5846 6.832-8.8301zm86.262-129.3c1.5401-3.1675 2.8001-6.0568 2.8001-6.4208s0.60329-1.9912 1.3406-3.616c0.73736-1.6248 2.4592-5.9073 3.8263-9.5167s3.465-9.0938 4.662-12.188c1.197-3.0938 1.9963-5.8108 1.7764-6.0379-0.97328-1.005-3.1189 2.8586-5.4357 9.7879-1.3792 4.125-3.3129 8.6178-4.2971 9.9841-0.98423 1.3662-2.0902 3.6866-2.4577 5.1562-0.66502 2.6594-3.5192 9.5313-6.976 16.796-0.99753 2.0964-1.8043 4.4167-1.7928 5.1562 0.0322 2.0762 3.3788-2.5715 6.554-9.1019zm-350.87 163.61c-1.9336-1.5796-3.5156-3.4639-3.5156-4.1873 0-2.0219 1.3188-1.5736 3.7143 1.2628 1.1976 1.418 2.8156 3.3164 3.5956 4.2188 2.2458 2.598 0.0559 1.851-3.7943-1.2942zm3.9878-5.9677c-2.5051-2.6666-1.85-4.3982 0.76773-2.0292 0.9461 0.85622 2.2143 1.5568 2.8182 1.5568 0.60393 0 1.0981 0.63281 1.0981 1.4062 0 2.1297-2.2222 1.6867-4.684-0.93381zm4.3399-8.2068c-1.7116-4.0519-0.20988-5.7734 2.2489-2.5781 0.99195 1.2891 1.8129 3.082 1.8244 3.9844 0.0352 2.7679-2.7105 1.82-4.0733-1.4062zm4.7838-6.8885c-0.30823-0.30822-0.32927-1.1627-0.0468-1.8989 0.3941-1.027 0.81542-1.0881 1.8104-0.26231 0.71322 0.59192 1.2968 1.4464 1.2968 1.8989 0 0.92927-2.2045 1.1182-3.0604 0.2623zm3.9979-6.3942c0-0.73127-0.25607-1.9969-0.56905-2.8125-0.36304-0.94607-0.06-1.4829 0.83719-1.4829 1.4284 0 2.5444 1.8839 2.5444 4.2954 0 0.73126-0.63281 1.3296-1.4062 1.3296s-1.4062-0.59831-1.4062-1.3296zm5.658-8.9213c-1.2817-2.3948-1.2257-2.8741 0.33547-2.8741 1.2284 0 2.444 1.9034 2.444 3.8267 0 1.5257-1.7796 0.91583-2.7795-0.95255zm4.1078-8.0074c-0.33876-1.3497-0.31983-2.7501 0.0421-3.112 0.80151-0.8015 3.4651 2.6454 3.0369 3.93-0.66352 1.9905-2.4962 1.5036-3.0789-0.81805zm4.8658-6.6621c-0.82396-2.1472-0.69813-5.0796 0.21796-5.0796 0.81746 0 2.963 4.1051 2.963 5.6691 0 1.4801-2.5695 1.0039-3.181-0.58954zm4.1184-9.2983c0-3.8633 1.1352-4.2443 2.662-0.89339 1.5239 3.3447 1.3675 4.1746-0.78701 4.1746-1.5179 0-1.875-0.625-1.875-3.2812zm5.658-7.9071c-1.2817-2.3948-1.2257-2.8741 0.33547-2.8741 1.2284 0 2.444 1.9034 2.444 3.8267 0 1.5257-1.7796 0.91583-2.7795-0.95255zm8.728-18.383c-0.30533-0.79568-0.35247-1.6494-0.10476-1.8971 0.83522-0.83521 3.5312 0.72061 3.5312 2.0378 0 1.7741-2.7348 1.6618-3.4265-0.14073zm5.946-6.6588c-0.93907-0.93907-0.7898-5.0195 0.18363-5.0195 0.73366 0 1.0837 0.77059 1.9056 4.1953 0.26977 1.124-1.2068 1.7066-2.0892 0.82422zm7.2162-8.5652c-1.5492-0.99738-2.4605-4.6422-1.3346-5.3381 0.53756-0.33223 1.4123 0.53992 1.9439 1.9381 1.1258 2.9611 0.87584 4.3561-0.60931 3.4zm5.4986-9.5663c-2.4072-1.9626-2.7594-3.763-0.7361-3.763 1.4433 0 3.646 3.2741 3.1406 4.6684-0.16235 0.44795-1.2444 0.0405-2.4046-0.90538zm6.3295-11.73c-0.63173-0.76119-0.88548-2.0697-0.56388-2.9078 0.47379-1.2347 0.84942-1.3041 1.9799-0.36589 1.5545 1.2901 1.8358 3.3578 0.56389 4.1439-0.4572 0.28257-1.3482-0.10904-1.9799-0.87024zm5.0097-10.355c-0.30533-0.79568-0.35247-1.6494-0.10476-1.8971 0.83522-0.83521 3.5312 0.72061 3.5312 2.0378 0 1.7741-2.7348 1.6618-3.4265-0.14073zm5.625-10.312c-0.30533-0.79568-0.32823-1.6736-0.0509-1.951 0.82436-0.82436 4.5158 1.5384 3.917 2.5072-0.85908 1.39-3.2514 1.0458-3.8662-0.55621zm5.3015-10.741c0-1.0417 0.625-1.875 1.4062-1.875s1.4062 0.83333 1.4062 1.875-0.625 1.875-1.4062 1.875-1.4062-0.83333-1.4062-1.875zm5.9751-9.8149c-0.31996-0.83379-0.29844-1.7993 0.0478-2.1455 0.79311-0.79312 3.885 1.0937 3.636 2.2188-0.33709 1.5233-3.0922 1.4685-3.6838-0.0733zm9.2593-9.556c-1.7541-0.70779-1.541-7.8166 0.23438-7.8166 1.0417 0 1.4062 1.0938 1.4062 4.2188 0 2.3203-0.10547 4.1854-0.23438 4.1447-0.1289-0.0407-0.76171-0.2868-1.4062-0.54687zm7.125-12.504c-0.0773-2.0625-0.18281-4.1719-0.23437-4.6875-0.0516-0.51562 0.29777-1.043 0.7763-1.1719 1.1954-0.32203 2.5482 4.9158 1.9369 7.5-0.80879 3.4193-2.3268 2.4147-2.4788-1.6406zm7.2891-10.43c-0.8877-4.4385-0.70648-6.6417 0.51286-6.2353 1.314 0.438 2.223 9.165 0.95466 9.165-0.48487 0-1.1453-1.3184-1.4675-2.9297zm7.354-13.214c-0.81728-2.1298-0.21923-4.7124 1.2007-5.1852 1.3849-0.46112 1.5746 3.3025 0.27045 5.3648-0.75189 1.1889-0.95556 1.1641-1.4712-0.17961zm5.3601-13.081c0.32341-3.2749 2.6375-4.9135 2.6375-1.8676 0 2.5712-0.95431 4.8423-2.0347 4.8423-0.49313 0-0.7644-1.3386-0.60282-2.9747zm5.45-12.963c0-0.51562 0.42187-0.9375 0.9375-0.9375 0.51562 0 0.9375 0.42188 0.9375 0.9375s-0.42188 0.9375-0.9375 0.9375c-0.51563 0-0.9375-0.42188-0.9375-0.9375z"/>
</svg>
