<?xml version="1.0" standalone="no"?>
<!DOCTYPE svg PUBLIC "-//W3C//DTD SVG 20010904//EN"
 "http://www.w3.org/TR/2001/REC-SVG-20010904/DTD/svg10.dtd">
<svg version="1.0" xmlns="http://www.w3.org/2000/svg"
 width="3840.000000pt" height="2160.000000pt" viewBox="0 0 3840.000000 2160.000000"
 preserveAspectRatio="xMidYMid meet">

<g transform="translate(0.000000,2160.000000) scale(0.100000,-0.100000)"
fill="#000000" stroke="none">
<path d="M19040 17004 c0 -17 139 -1108 205 -1604 36 -272 86 -655 111 -850
24 -195 61 -470 80 -610 40 -291 96 -746 119 -960 15 -132 55 -555 55 -572 0
-15 -15 -8 -100 43 -208 125 -383 207 -473 224 l-37 7 0 -47 c0 -27 36 -265
79 -529 173 -1049 227 -1410 321 -2146 52 -411 67 -560 56 -560 -22 0 -70 38
-133 107 -150 163 -291 308 -296 303 -3 -3 5 -68 18 -145 13 -77 39 -241 59
-365 20 -124 45 -278 56 -342 11 -65 29 -172 40 -238 11 -66 29 -174 40 -240
11 -66 29 -174 40 -240 11 -66 29 -174 40 -240 11 -66 29 -174 40 -240 11 -66
29 -174 40 -240 11 -66 29 -173 40 -237 11 -65 43 -257 70 -428 28 -170 55
-332 60 -360 9 -45 77 -465 130 -800 27 -172 56 -348 75 -465 9 -52 21 -124
26 -160 13 -89 68 -407 77 -450 4 -19 10 -30 14 -25 11 19 28 120 47 290 38
327 40 355 96 1070 15 193 34 465 75 1065 41 607 55 790 60 790 3 0 45 -78 93
-173 263 -517 302 -585 333 -598 14 -5 29 -9 33 -9 8 0 12 393 27 2453 4 477
10 867 13 867 3 0 107 -202 231 -450 123 -247 227 -450 231 -450 3 0 13 8 21
18 36 41 39 57 28 199 -13 176 -85 1315 -105 1663 -8 146 -20 351 -26 455 -15
263 -25 595 -18 606 12 21 64 -58 457 -701 169 -278 183 -300 199 -316 37 -37
291 -2 553 76 109 32 328 115 452 170 183 82 378 208 508 328 30 28 62 51 71
52 47 1 373 -103 439 -140 13 -8 15 -137 16 -1087 0 -1101 2 -1154 40 -1333
55 -261 246 -459 1057 -1097 37 -29 97 -77 135 -107 153 -121 195 -136 400
-136 140 0 237 15 337 52 116 43 527 240 708 340 302 165 530 432 581 675 31
150 36 179 55 338 51 421 54 979 7 1415 -56 520 -123 1067 -156 1275 -48 308
-133 454 -398 688 -235 206 -452 364 -657 478 -118 66 -156 79 -234 79 -128 0
-383 -106 -781 -324 -41 -23 -84 -46 -95 -53 -11 -7 -27 -16 -35 -20 -8 -4
-73 -43 -145 -86 -71 -44 -149 -92 -172 -106 -183 -112 -334 -211 -367 -240
-53 -49 -101 -125 -122 -197 -19 -67 -49 -133 -91 -200 l-28 -45 -50 6 c-47 6
-336 97 -365 115 -13 8 -4 158 45 710 31 343 94 1083 110 1280 9 113 20 255
25 316 15 189 -9 282 -114 441 -41 62 -298 389 -440 559 -28 34 -96 116 -151
184 -167 205 -502 607 -619 744 l-111 128 -80 -5 c-67 -4 -111 -17 -280 -80
-489 -182 -718 -257 -735 -241 -13 13 -17 174 -8 299 22 321 23 345 13 346 -5
1 -255 2 -555 3 -300 1 -633 7 -740 13 -294 18 -670 27 -670 17z m2793 -944
c15 0 35 -65 51 -165 9 -55 21 -127 26 -160 55 -336 105 -847 135 -1380 3 -49
9 -171 15 -270 15 -273 30 -1021 23 -1182 -5 -130 -8 -143 -26 -149 -10 -3
-87 0 -171 7 -160 13 -309 5 -488 -26 -129 -23 -381 -55 -386 -50 -11 11 -22
1234 -20 2172 l3 1011 24 26 c13 14 38 28 55 31 17 4 51 13 76 21 44 14 484
110 565 123 22 4 56 3 75 -1 19 -4 39 -8 43 -8z m3821 -3067 c9 -67 -16 -201
-53 -279 -49 -105 -132 -203 -251 -297 -36 -28 -67 -54 -70 -57 -14 -17 -88
-54 -185 -94 -59 -25 -134 -61 -167 -81 -33 -21 -62 -34 -66 -31 -10 11 -15
199 -7 272 8 79 7 78 179 203 131 94 597 410 608 410 3 1 9 -20 12 -46z
m-4037 -592 c83 -11 205 -32 270 -46 65 -14 130 -28 144 -31 56 -12 64 -93 17
-162 -48 -71 -183 -244 -206 -265 -34 -31 -72 -14 -150 66 -77 79 -223 243
-340 381 l-76 89 95 -6 c52 -3 162 -15 246 -26z m4120 -451 c6 -52 28 -223 48
-380 59 -464 85 -738 97 -1040 16 -353 16 -385 0 -753 -22 -540 -89 -1016
-149 -1069 -28 -24 -230 -132 -312 -167 -43 -18 -90 -31 -115 -31 -40 0 -47 5
-142 103 -56 56 -115 123 -132 148 l-31 46 -30 364 c-66 787 -101 1545 -102
2229 l0 425 73 32 c40 17 84 36 98 43 14 6 57 24 95 40 39 16 102 43 140 61
77 36 161 47 350 45 l100 -1 12 -95z"/>
<path d="M14115 15906 c-22 -7 -57 -21 -77 -32 -20 -10 -223 -203 -450 -429
-227 -225 -480 -474 -561 -551 l-149 -142 16 -31 c9 -17 25 -31 34 -31 10 0
60 11 112 25 52 13 95 23 97 22 9 -10 -3 -1665 -13 -1695 -2 -7 -4 -300 -5
-650 -2 -879 -19 -1277 -70 -1627 -26 -183 -44 -245 -95 -321 -65 -98 -232
-257 -357 -339 -33 -22 -57 -45 -55 -53 4 -17 190 -98 261 -114 30 -6 96 -8
161 -5 221 12 403 26 496 38 119 17 483 16 765 -1 116 -6 249 -14 298 -17 53
-3 87 -1 87 5 0 5 -50 61 -111 123 -61 63 -128 138 -148 168 l-36 54 -7 356
c-3 196 -9 1128 -13 2071 -5 1408 -4 1719 7 1739 17 32 68 49 149 50 l65 1 16
-62 c9 -35 38 -137 66 -228 27 -91 69 -230 92 -310 23 -80 48 -164 56 -188 23
-70 18 -88 -34 -145 -159 -171 -159 -172 -136 -200 56 -67 80 -87 104 -87 39
0 352 185 705 418 233 154 324 221 360 263 24 30 27 39 21 84 -6 54 -58 222
-99 320 -61 147 -205 462 -270 590 -159 315 -248 419 -341 399 -73 -16 -252
-124 -536 -325 -122 -87 -142 -99 -166 -99 -14 0 -24 8 -28 23 -6 21 -18 291
-32 701 -6 175 -7 179 -33 207 -31 35 -88 44 -146 25z"/>
<path d="M28608 15673 c-30 -32 -96 -114 -148 -183 -52 -68 -102 -133 -111
-145 -10 -11 -44 -52 -76 -90 -120 -146 -193 -225 -368 -400 -370 -371 -780
-690 -1233 -960 l-63 -37 3 -77 3 -76 460 -5 460 -5 12 -71 c17 -103 51 -525
63 -774 13 -277 13 -1137 0 -1390 -6 -107 -26 -442 -45 -745 -18 -302 -39
-692 -45 -865 -16 -472 -32 -1467 -25 -1535 17 -165 89 -282 240 -390 104 -74
445 -258 890 -480 252 -126 442 -215 458 -215 21 0 41 14 82 58 30 31 55 59
55 62 0 3 -54 44 -121 90 -127 90 -143 102 -248 190 -183 151 -220 206 -229
335 -4 65 14 580 38 1080 20 407 50 1125 65 1535 8 228 20 532 26 675 6 143
14 739 18 1323 8 1233 -10 1092 135 1092 50 0 196 3 324 7 l232 6 0 52 c0 28
-11 138 -25 243 -14 105 -25 195 -25 200 0 5 -140 12 -311 15 -171 3 -314 8
-317 12 -7 6 -16 365 -27 1000 -7 443 -9 475 -36 504 -31 33 -51 26 -111 -36z"/>
<path d="M6635 15699 c-71 -4 -198 -14 -280 -23 -83 -8 -274 -21 -425 -27
-331 -14 -803 0 -1060 31 -220 27 -204 28 -197 -20 7 -57 29 -86 89 -116 67
-34 138 -102 167 -158 18 -37 25 -77 36 -218 25 -314 60 -902 75 -1258 26
-619 31 -843 37 -1541 l6 -746 -84 -65 c-441 -343 -1112 -727 -1271 -728 -25
0 -26 17 -44 460 -14 369 -19 537 -44 1545 -18 727 -24 1720 -11 1843 21 203
81 313 229 422 15 11 23 31 28 74 l7 59 -244 -7 c-1381 -38 -1588 -41 -1797
-26 -206 14 -242 9 -268 -42 -8 -16 -13 -35 -11 -42 3 -7 30 -22 61 -34 131
-50 271 -172 332 -287 43 -83 52 -133 59 -340 3 -99 12 -340 20 -535 8 -195
21 -562 30 -815 8 -253 19 -584 25 -735 28 -760 46 -1646 35 -1734 l-8 -58
-46 6 c-67 8 -440 194 -771 383 -72 41 -259 171 -330 228 -86 70 -124 111
-116 124 9 13 177 114 346 206 219 120 315 176 327 193 7 9 13 31 13 50 l0 35
-48 -6 c-318 -40 -631 -105 -812 -170 -150 -54 -190 -74 -190 -94 0 -10 15
-52 33 -93 91 -205 214 -419 331 -575 75 -101 224 -250 296 -297 86 -56 527
-274 911 -451 l77 -35 7 -158 c11 -258 9 -1406 -4 -1704 -14 -308 -31 -463
-60 -541 -51 -133 -168 -272 -306 -364 -70 -46 -118 -72 -285 -153 -29 -14
-36 -23 -38 -52 -2 -19 -9 -38 -15 -42 -9 -5 -9 -10 1 -20 19 -19 144 -26 457
-27 348 -1 875 -17 1230 -36 468 -26 703 -52 887 -97 128 -31 158 -32 158 -2
0 33 -43 74 -153 142 -176 110 -245 180 -280 284 -16 46 -26 693 -39 2487 l-3
405 150 36 c503 123 879 286 1193 516 12 9 25 14 28 12 13 -14 35 -362 50
-793 17 -515 15 -1648 -5 -1970 -40 -656 -104 -972 -236 -1170 -67 -101 -230
-246 -369 -327 -42 -25 -46 -30 -40 -55 4 -16 23 -54 43 -87 l35 -58 66 6
c345 31 979 32 1385 1 188 -15 633 -67 845 -100 148 -23 156 -22 180 25 11 21
20 46 20 55 0 17 -63 65 -130 100 -111 57 -219 188 -285 346 -55 131 -94 300
-115 509 -13 124 -29 1935 -30 3380 l-1 995 58 32 c128 71 322 131 603 188 96
19 182 35 191 35 9 0 -68 -84 -170 -187 -202 -204 -210 -212 -288 -321 -86
-120 -125 -209 -130 -294 -6 -104 47 -311 192 -748 67 -202 145 -437 336
-1020 51 -155 66 -190 93 -216 84 -80 375 -136 466 -89 28 14 253 179 330 242
65 52 342 253 350 253 5 0 10 -15 10 -32 0 -74 31 -235 55 -283 49 -101 106
-139 235 -157 217 -30 370 47 526 265 90 127 129 170 233 259 125 108 158 138
371 329 47 42 100 89 118 104 31 26 68 82 60 91 -2 2 -22 -1 -44 -7 -58 -17
-238 -6 -299 18 l-50 19 3 354 c1 195 7 470 14 610 15 358 5 1392 -16 1600
-48 472 -87 544 -591 1090 -234 254 -522 557 -726 764 -171 174 -166 172 -309
113 -314 -129 -643 -320 -1045 -607 -82 -59 -161 -113 -174 -120 -22 -11 -23
-16 -19 -93 4 -66 14 -106 51 -205 69 -182 178 -401 300 -602 29 -47 57 -93
62 -102 34 -59 150 -240 155 -243 4 -3 29 3 55 12 l48 16 -7 116 c-7 129 5
258 31 341 20 63 77 126 152 166 25 14 84 48 131 76 119 71 482 251 561 279
36 12 72 20 81 17 10 -4 17 -26 21 -70 80 -796 101 -1236 101 -2158 0 -508 -5
-790 -17 -1050 -24 -504 -25 -508 -56 -535 -14 -12 -59 -51 -100 -86 -96 -84
-101 -87 -135 -91 -27 -3 -31 0 -39 37 -9 40 -145 513 -212 740 -96 324 -106
375 -150 740 -14 121 -32 258 -39 305 -7 47 -11 93 -8 102 5 19 196 208 352
347 69 62 126 104 166 122 47 22 63 34 66 53 6 30 -15 39 -122 55 -113 18
-676 25 -895 12 -221 -14 -528 -51 -675 -82 -243 -51 -260 -53 -273 -40 -18
18 -18 2610 1 2761 21 175 67 318 167 520 62 127 95 179 144 234 45 48 64 82
56 96 -7 11 -16 11 -210 -1z"/>
<path d="M11043 15386 c-30 -14 -241 -153 -406 -267 -252 -175 -1020 -724
-1050 -749 -14 -13 15 -48 53 -65 32 -15 54 -15 189 -6 179 13 480 14 499 3
17 -12 32 -151 32 -312 0 -74 4 -241 10 -370 14 -352 19 -778 26 -2280 l7
-1365 -34 -36 c-45 -47 -100 -88 -184 -137 -38 -22 -89 -60 -112 -84 -37 -39
-83 -111 -83 -130 0 -9 1599 -8 1835 1 144 5 160 8 163 24 8 40 -8 64 -60 92
-86 45 -155 102 -182 148 -19 32 -28 72 -40 167 -15 119 -38 396 -51 615 -7
120 -36 478 -70 855 -14 151 -32 352 -40 445 -16 190 -28 456 -50 1185 -8 272
-20 612 -25 755 -11 293 -8 332 26 347 30 14 78 -5 104 -42 11 -15 45 -115 76
-221 31 -107 69 -239 85 -294 38 -129 133 -472 152 -550 l16 -60 -32 -35 c-17
-19 -61 -65 -96 -102 l-64 -66 37 -43 c20 -23 36 -46 36 -51 0 -30 82 13 390
202 113 69 241 147 285 173 120 72 300 189 326 212 25 23 69 111 69 140 0 32
-45 201 -84 310 -19 55 -76 201 -127 325 -50 124 -106 261 -124 305 -103 255
-197 423 -264 470 -40 28 -49 30 -124 29 -66 -1 -97 -7 -160 -32 -80 -31 -344
-190 -456 -274 -35 -26 -67 -48 -70 -48 -29 1 -42 76 -76 435 -19 198 -35 292
-49 303 -23 18 -193 81 -231 87 -25 3 -52 0 -72 -9z"/>
<path d="M30669 15262 c-40 -27 -54 -50 -140 -217 -74 -145 -211 -392 -278
-503 -72 -120 -265 -403 -368 -541 -191 -254 -330 -415 -635 -737 -122 -129
-140 -162 -115 -212 6 -14 24 -34 39 -46 26 -19 43 -20 263 -20 l235 -1 0 -30
c0 -16 8 -343 17 -725 14 -564 17 -1000 15 -2315 -3 -1654 5 -2164 32 -2229
42 -101 334 -285 721 -453 130 -57 411 -171 540 -219 333 -126 967 -335 1036
-341 52 -5 61 -3 105 28 64 43 88 68 163 164 84 107 273 309 503 537 173 171
188 189 188 222 0 68 -2 68 -355 91 -814 52 -1276 67 -1302 42 -4 -5 -3 -15 3
-24 27 -44 63 -55 385 -119 368 -73 529 -111 545 -128 19 -18 25 -61 11 -78
-21 -27 -257 -226 -354 -299 -56 -43 -101 -69 -116 -69 -14 0 -58 17 -99 39
-245 129 -306 161 -428 226 -74 39 -176 93 -226 120 l-92 48 -6 66 c-20 202
-59 1962 -76 3341 -22 1862 -23 2077 -13 2083 13 8 622 47 731 47 97 0 90 -18
99 243 l6 189 -431 -7 -432 -8 0 32 c0 17 -9 215 -20 439 -31 640 -40 832 -50
1057 -11 267 -15 292 -50 310 -24 12 -30 12 -51 -3z"/>
<path d="M35923 14277 c-18 -10 -112 -91 -402 -345 -14 -13 -39 -36 -56 -51
-62 -56 -594 -519 -675 -589 -100 -85 -97 -81 -155 -171 -37 -57 -45 -78 -45
-116 l0 -46 78 5 c42 4 113 7 157 9 l80 2 7 -295 c45 -1864 58 -3509 28 -3735
-24 -186 -67 -317 -132 -404 -175 -236 -297 -335 -461 -376 -41 -11 -67 -23
-67 -31 0 -7 10 -39 23 -70 l22 -56 100 5 c240 12 527 -33 855 -133 277 -85
559 -158 790 -204 247 -50 622 -76 1098 -76 l302 0 0 73 0 72 -122 19 c-249
37 -540 122 -710 207 -205 102 -331 231 -371 379 -19 67 -44 574 -77 1520 -5
168 -15 400 -20 515 -6 116 -10 275 -10 355 0 80 -4 226 -10 325 -5 99 -14
378 -20 620 -6 242 -15 562 -20 710 -5 149 -12 360 -15 470 l-6 200 121 79
c66 43 122 77 124 75 2 -2 20 -58 41 -124 20 -66 45 -145 55 -175 10 -30 33
-102 50 -160 18 -58 54 -175 81 -260 26 -85 64 -206 83 -269 20 -63 36 -124
36 -135 0 -12 -61 -104 -135 -205 l-135 -184 52 -56 c28 -31 53 -58 54 -59 1
-2 76 54 166 124 90 70 201 157 248 193 47 36 132 104 190 150 58 46 123 97
144 115 303 240 429 356 460 421 22 46 30 132 17 197 -13 74 -46 157 -132 337
-147 307 -519 932 -580 975 -49 34 -134 14 -216 -52 -30 -24 -92 -62 -368
-227 -99 -60 -196 -118 -215 -130 -44 -28 -110 -65 -115 -65 -6 0 -15 70 -35
280 -25 262 -36 323 -63 348 -29 27 -67 35 -94 19z"/>
<path d="M32966 13740 c-26 -5 -54 -11 -62 -14 -8 -3 -150 -115 -315 -248
-166 -134 -376 -303 -468 -377 -91 -73 -175 -140 -186 -150 -17 -13 -242 -189
-253 -197 -14 -10 -35 -160 -67 -481 -14 -139 -34 -301 -46 -360 -26 -135 -25
-77 -10 -1092 13 -876 13 -874 -24 -1076 -16 -87 -19 -165 -7 -165 4 0 54 -54
112 -119 120 -136 522 -539 655 -657 74 -66 163 -140 275 -227 58 -45 145
-100 173 -108 113 -34 485 -51 621 -29 71 11 112 41 176 127 164 220 301 401
365 483 166 212 305 398 335 447 l32 52 -55 84 c-30 46 -70 110 -89 141 -18
32 -38 65 -43 74 -42 72 -152 226 -190 270 -35 38 -54 52 -74 52 -43 0 -51
-13 -66 -101 -42 -258 -159 -709 -256 -984 -52 -149 -154 -376 -175 -392 -32
-24 -131 42 -256 168 -115 117 -208 274 -248 421 -41 154 -55 458 -76 1739 -6
319 -4 373 10 420 26 89 18 85 153 70 178 -19 413 -73 1156 -265 97 -25 192
-46 210 -46 28 0 43 10 88 58 98 103 162 190 241 327 87 151 148 268 148 286
0 19 -58 185 -146 414 -92 243 -150 397 -230 615 -99 269 -112 297 -144 320
-110 78 -863 463 -988 504 -81 27 -174 32 -276 16z m129 -396 c8 -11 24 -46
36 -79 12 -33 95 -244 184 -470 90 -225 193 -484 228 -575 36 -91 86 -214 111
-275 52 -126 56 -150 24 -159 -24 -6 -44 -4 -273 20 -77 8 -234 23 -350 34
-115 11 -231 23 -257 26 l-48 6 0 67 c0 132 60 1016 75 1105 19 111 59 236 87
272 12 14 35 33 52 40 41 19 113 12 131 -12z"/>
<path d="M16990 13301 c0 -4 32 -31 72 -60 80 -60 173 -106 248 -122 28 -6 50
-12 50 -14 0 -1 -11 -27 -24 -56 -30 -69 -121 -348 -141 -435 -8 -37 -46 -127
-87 -207 -134 -265 -629 -1144 -746 -1325 -38 -59 -40 -61 -57 -42 -26 28
-129 394 -365 1292 -33 125 -60 244 -60 264 0 81 56 144 175 196 110 48 182
105 160 126 -5 5 -243 -9 -480 -28 -60 -5 -285 -13 -500 -19 -214 -6 -471 -16
-570 -21 -99 -6 -205 -10 -236 -10 -55 0 -57 -1 -74 -36 -9 -20 -15 -37 -13
-39 2 -2 35 -10 75 -19 121 -25 170 -59 205 -142 52 -120 213 -605 433 -1304
137 -433 311 -1000 375 -1220 23 -80 55 -189 71 -243 17 -53 33 -120 36 -148
6 -48 4 -53 -49 -132 -30 -45 -88 -134 -128 -197 -40 -63 -87 -137 -105 -165
-17 -27 -71 -113 -120 -190 -48 -77 -107 -169 -130 -205 -23 -36 -106 -170
-186 -298 -96 -154 -151 -234 -164 -237 -103 -24 -746 -33 -1030 -15 -528 34
-1099 117 -1225 178 -31 16 -35 21 -32 52 8 81 96 328 130 362 9 9 42 23 72
31 30 9 165 45 300 82 135 37 276 75 313 85 69 18 117 43 117 60 0 17 -25 24
-105 31 -44 3 -249 22 -455 42 -206 20 -402 39 -436 42 l-61 5 -164 -167 c-91
-93 -197 -210 -237 -261 -133 -173 -225 -343 -209 -385 3 -9 34 -31 69 -49
101 -51 370 -179 408 -193 19 -8 89 -36 155 -63 281 -115 745 -253 1115 -331
339 -72 583 -108 960 -142 126 -11 646 -28 665 -21 6 2 71 87 145 188 74 101
156 212 181 246 206 280 808 1198 960 1464 9 16 43 72 74 124 197 327 474 817
630 1115 37 72 85 162 105 200 20 39 68 129 105 200 63 121 130 244 185 340
13 22 46 83 75 135 29 52 93 168 144 258 50 90 91 165 91 167 0 2 14 28 31 57
52 87 281 541 358 709 40 85 101 207 136 269 66 115 84 169 55 161 -47 -13
-240 -11 -352 3 -136 18 -582 45 -743 47 -55 0 -121 4 -147 8 -27 4 -48 5 -48
2z"/>
</g>
</svg>
